<svg width="2000" height="411" viewBox="0 0 2000 411" fill="none" xmlns="http://www.w3.org/2000/svg">
<path d="M263.013 205.816C261.563 151.136 242.233 73.5734 210.125 22.2148L230.169 0C325.204 33.1351 392.169 112.803 392.169 205.816C392.169 297.902 326.533 376.907 233.002 410.627L210.016 389.969C243.997 337.499 265.34 293.573 263.013 205.816Z" fill="#00FFFF"/>
<path d="M141.995 209.413C128.888 160.498 109.939 126.871 68.5882 88.1859L78.6005 68.5862C152.432 74.036 219.08 115.49 233.957 184.182C246.898 251.668 220.515 319.879 158.789 359.799L138.524 349.498C153.175 298.982 152.003 246.766 141.995 209.413Z" fill="#00FFFF"/>
<path d="M59.1627 241.105C44.536 214.004 23.5509 193.008 0 179.613L3.17068 166.61C47.621 159.462 90.9072 176.596 110.668 213.211C130.232 249.46 121.18 294.505 91.526 327.65L78.0886 324.402C79.8362 297.337 73.8059 268.237 59.1627 241.105Z" fill="#00FFFF"/>
<path d="M527.795 364.494V40.5859H672.165C692.834 40.5859 711.189 44.442 727.23 52.1541C743.579 59.5577 756.381 70.6631 765.636 85.4703C775.199 99.9691 779.98 117.707 779.98 138.684C779.98 159.352 775.199 177.244 765.636 192.36C756.381 207.167 743.579 218.427 727.23 226.139C711.189 233.543 692.988 237.244 672.628 237.244H582.859V364.494H527.795ZM667.538 191.435C681.728 191.435 692.217 190.201 699.003 187.733C706.099 184.956 711.034 180.021 713.811 172.925C716.587 165.522 717.975 154.262 717.975 139.147C717.975 123.722 716.587 112.463 713.811 105.368C711.034 97.9639 706.099 93.0282 699.003 90.5603C692.217 88.0925 681.728 86.8585 667.538 86.8585H582.859V191.435H667.538Z" fill="#F3F8F9"/>
<path d="M877.501 370.047C852.822 370.047 832.925 363.414 817.809 350.149C803.002 336.576 795.598 317.759 795.598 293.697C795.598 272.72 802.231 256.37 815.496 244.648C829.069 232.617 848.658 225.83 874.262 224.288L956.164 219.198V198.838C956.164 188.35 954.622 180.483 951.537 175.239C948.452 169.995 943.362 166.447 936.267 164.596C929.48 162.437 919.609 161.357 906.653 161.357C887.218 161.357 873.799 164.134 866.395 169.686C858.992 174.931 854.827 184.802 853.902 199.301H802.539C802.231 174.931 811.794 155.65 831.228 141.46C850.663 126.961 876.73 119.712 909.429 119.712C937.192 119.712 960.329 125.727 978.838 137.758C997.655 149.789 1007.06 171.383 1007.06 202.54V364.494H957.09L956.164 343.671H941.82C936.575 352 928.092 358.479 916.37 363.106C904.647 367.733 891.691 370.047 877.501 370.047ZM901.563 330.252C916.37 330.252 927.629 328.71 935.342 325.625C943.362 322.232 948.761 316.987 951.537 309.892C954.622 302.489 956.164 292.155 956.164 278.89V254.828L887.218 259.918C876.421 260.843 868.401 262.386 863.156 264.545C858.221 266.705 854.673 270.098 852.514 274.725C850.663 279.352 849.737 286.448 849.737 296.011C849.737 309.892 853.439 319.147 860.843 323.774C868.555 328.093 882.128 330.252 901.563 330.252Z" fill="#F3F8F9"/>
<path d="M1046.01 364.494V126.19H1095.98L1096.91 147.013H1111.25C1118.65 138.684 1128.37 132.051 1140.4 127.116C1152.43 122.18 1165.85 119.712 1180.66 119.712C1205.34 119.712 1224.62 126.653 1238.5 140.535C1252.69 154.108 1259.79 174.776 1259.79 202.54V364.494H1207.03V217.347C1207.03 201.614 1205.65 190.046 1202.87 182.643C1200.09 175.239 1195 170.303 1187.6 167.836C1180.2 165.059 1168.63 163.671 1152.9 163.671C1136.85 163.671 1125.13 165.059 1117.73 167.836C1110.32 170.612 1105.23 175.702 1102.46 183.105C1099.68 190.509 1098.29 202.077 1098.29 217.81V364.494H1046.01Z" fill="#F3F8F9"/>
<path d="M1373.97 370.047C1349.29 370.047 1329.39 363.414 1314.28 350.149C1299.47 336.576 1292.07 317.759 1292.07 293.697C1292.07 272.72 1298.7 256.37 1311.96 244.648C1325.54 232.617 1345.12 225.83 1370.73 224.288L1452.63 219.198V198.838C1452.63 188.35 1451.09 180.483 1448 175.239C1444.92 169.995 1439.83 166.447 1432.73 164.596C1425.95 162.437 1416.08 161.357 1403.12 161.357C1383.69 161.357 1370.27 164.134 1362.86 169.686C1355.46 174.931 1351.29 184.802 1350.37 199.301H1299.01C1298.7 174.931 1308.26 155.65 1327.7 141.46C1347.13 126.961 1373.2 119.712 1405.9 119.712C1433.66 119.712 1456.8 125.727 1475.31 137.758C1494.12 149.789 1503.53 171.383 1503.53 202.54V364.494H1453.56L1452.63 343.671H1438.29C1433.04 352 1424.56 358.479 1412.84 363.106C1401.11 367.733 1388.16 370.047 1373.97 370.047ZM1398.03 330.252C1412.84 330.252 1424.1 328.71 1431.81 325.625C1439.83 322.232 1445.23 316.987 1448 309.892C1451.09 302.489 1452.63 292.155 1452.63 278.89V254.828L1383.69 259.918C1372.89 260.843 1364.87 262.386 1359.62 264.545C1354.69 266.705 1351.14 270.098 1348.98 274.725C1347.13 279.352 1346.2 286.448 1346.2 296.011C1346.2 309.892 1349.91 319.147 1357.31 323.774C1365.02 328.093 1378.6 330.252 1398.03 330.252Z" fill="#F3F8F9"/>
<path d="M1542.47 364.494V126.19H1592.45L1593.37 147.013H1607.72C1615.12 138.684 1624.84 132.051 1636.87 127.116C1648.9 122.18 1662.32 119.712 1677.13 119.712C1701.81 119.712 1721.09 126.653 1734.97 140.535C1749.16 154.108 1756.25 174.776 1756.25 202.54V364.494H1703.5V217.347C1703.5 201.614 1702.11 190.046 1699.34 182.643C1696.56 175.239 1691.47 170.303 1684.07 167.836C1676.66 165.059 1665.1 163.671 1649.36 163.671C1633.32 163.671 1621.6 165.059 1614.2 167.836C1606.79 170.612 1601.7 175.702 1598.93 183.105C1596.15 190.509 1594.76 202.077 1594.76 217.81V364.494H1542.47Z" fill="#F3F8F9"/>
<path d="M1870.44 370.047C1845.76 370.047 1825.86 363.414 1810.74 350.149C1795.94 336.576 1788.53 317.759 1788.53 293.697C1788.53 272.72 1795.17 256.37 1808.43 244.648C1822 232.617 1841.59 225.83 1867.2 224.288L1949.1 219.198V198.838C1949.1 188.35 1947.56 180.483 1944.47 175.239C1941.39 169.995 1936.3 166.447 1929.2 164.596C1922.41 162.437 1912.54 161.357 1899.59 161.357C1880.15 161.357 1866.73 164.134 1859.33 169.686C1851.93 174.931 1847.76 184.802 1846.84 199.301H1795.47C1795.17 174.931 1804.73 155.65 1824.16 141.46C1843.6 126.961 1869.66 119.712 1902.36 119.712C1930.13 119.712 1953.26 125.727 1971.77 137.758C1990.59 149.789 2000 171.383 2000 202.54V364.494H1950.02L1949.1 343.671H1934.75C1929.51 352 1921.03 358.479 1909.3 363.106C1897.58 367.733 1884.63 370.047 1870.44 370.047ZM1894.5 330.252C1909.3 330.252 1920.56 328.71 1928.28 325.625C1936.3 322.232 1941.7 316.987 1944.47 309.892C1947.56 302.489 1949.1 292.155 1949.1 278.89V254.828L1880.15 259.918C1869.36 260.843 1861.34 262.386 1856.09 264.545C1851.16 266.705 1847.61 270.098 1845.45 274.725C1843.6 279.352 1842.67 286.448 1842.67 296.011C1842.67 309.892 1846.37 319.147 1853.78 323.774C1861.49 328.093 1875.06 330.252 1894.5 330.252Z" fill="#F3F8F9"/>
</svg>
