<svg width="2407" height="500" viewBox="0 0 2407 500" fill="none" xmlns="http://www.w3.org/2000/svg">
<path d="M320.258 250.612C318.492 184.031 294.956 89.5867 255.858 27.0499L280.265 0C395.985 40.3469 477.525 137.354 477.525 250.612C477.525 362.74 397.603 458.941 283.716 500L255.726 474.846C297.104 410.956 323.091 357.47 320.258 250.612Z" fill="url(#paint0_radial_424_1621)"/>
<path d="M172.9 254.992C156.94 195.43 133.867 154.485 83.5165 107.38L95.708 83.514C185.609 90.15 266.763 140.627 284.878 224.269C300.635 306.444 268.51 389.501 193.349 438.109L168.674 425.566C186.513 364.056 185.087 300.475 172.9 254.992Z" fill="url(#paint1_radial_424_1621)"/>
<path d="M72.0395 293.582C54.2293 260.582 28.6768 235.017 0 218.706L3.86079 202.872C57.9857 194.169 110.693 215.033 134.755 259.616C158.578 303.755 147.555 358.604 111.447 398.963L95.0847 395.008C97.2127 362.053 89.8699 326.619 72.0395 293.582Z" fill="url(#paint2_radial_424_1621)"/>
<path d="M799.517 58.5859C825.701 58.5859 848.612 64.0409 868.795 73.8598C888.433 83.6787 904.252 97.8615 915.162 116.408C926.072 134.955 931.527 156.229 931.527 180.231C931.527 204.778 926.072 226.053 915.162 244.599C904.252 263.146 888.433 277.329 868.795 287.148C848.612 296.967 825.701 301.876 799.517 301.876H711.693V440.432H648.961V58.5859H799.517ZM711.693 247.327H794.062C816.428 247.327 834.429 241.326 847.521 229.326C860.613 217.325 867.704 200.96 867.704 180.231C867.704 159.502 861.158 143.138 848.066 131.137C834.974 119.136 816.973 113.135 794.608 113.135H711.693V247.327Z" fill="white"/>
<path d="M1209.75 161.139V440.432H1157.92L1151.38 397.883C1141.56 412.066 1129.01 422.976 1113.74 431.158C1098.47 439.886 1080.46 443.705 1060.28 443.705C1034.64 443.705 1011.73 438.25 992.094 426.794C971.911 415.339 956.091 398.974 945.181 377.154C933.726 355.335 928.271 330.242 928.271 300.785C928.271 272.42 933.726 247.872 945.181 226.053C956.637 204.233 972.456 187.868 992.639 175.867C1012.28 163.866 1035.19 157.866 1060.28 157.866C1081.01 157.866 1099.01 162.23 1114.28 169.867C1129.56 177.504 1141.56 188.414 1151.38 202.051L1158.47 161.139H1209.75ZM1129.01 368.427C1143.74 351.516 1151.38 329.151 1151.38 301.876C1151.38 274.602 1143.74 251.691 1129.01 234.235C1113.74 216.779 1094.1 208.051 1070.1 208.051C1045.55 208.051 1025.91 216.779 1011.19 234.235C995.912 251.691 988.821 273.511 988.821 300.785C988.821 328.605 995.912 350.971 1011.19 368.427C1025.91 385.882 1045.55 394.065 1070.1 394.065C1094.1 394.065 1113.74 385.882 1129.01 368.427Z" fill="white"/>
<path d="M1473.51 188.414C1494.24 209.142 1505.15 241.872 1505.15 286.602V440.432H1445.69V289.875C1445.69 263.692 1439.69 243.508 1428.78 229.326C1417.33 215.688 1400.96 208.597 1379.14 208.597C1355.69 208.597 1337.14 216.779 1324.05 233.144C1310.96 249.509 1304.41 271.329 1304.41 299.694V440.432H1245.5V161.139H1296.77L1303.32 197.687C1324.05 171.503 1354.05 157.866 1392.78 157.866C1425.51 157.866 1452.78 168.23 1473.51 188.414Z" fill="white"/>
<path d="M1808.02 161.139V440.432H1756.2L1749.65 397.883C1739.83 412.066 1727.29 422.976 1712.01 431.158C1696.74 439.886 1678.74 443.705 1658.56 443.705C1632.92 443.705 1610.01 438.25 1590.37 426.794C1570.19 415.339 1554.37 398.974 1543.46 377.154C1532 355.335 1526.55 330.242 1526.55 300.785C1526.55 272.42 1532 247.872 1543.46 226.053C1554.91 204.233 1570.73 187.868 1590.91 175.867C1610.55 163.866 1633.46 157.866 1658.56 157.866C1679.28 157.866 1697.29 162.23 1712.56 169.867C1727.83 177.504 1739.83 188.414 1749.65 202.051L1756.74 161.139H1808.02ZM1727.29 368.427C1742.02 351.516 1749.65 329.151 1749.65 301.876C1749.65 274.602 1742.02 251.691 1727.29 234.235C1712.01 216.779 1692.38 208.051 1668.37 208.051C1643.83 208.051 1624.19 216.779 1609.46 234.235C1594.19 251.691 1587.1 273.511 1587.1 300.785C1587.1 328.605 1594.19 350.971 1609.46 368.427C1624.19 385.882 1643.83 394.065 1668.37 394.065C1692.38 394.065 1712.01 385.882 1727.29 368.427Z" fill="white"/>
<path d="M2071.79 188.414C2092.52 209.142 2103.43 241.872 2103.43 286.602V440.432H2043.97V289.875C2043.97 263.692 2037.97 243.508 2027.06 229.326C2015.6 215.688 1999.24 208.597 1977.42 208.597C1953.96 208.597 1935.42 216.779 1922.32 233.144C1909.23 249.509 1902.69 271.329 1902.69 299.694V440.432H1843.77V161.139H1895.05L1901.59 197.687C1922.32 171.503 1952.33 157.866 1991.06 157.866C2023.79 157.866 2051.06 168.23 2071.79 188.414Z" fill="white"/>
<path d="M2406.3 161.139V440.432H2354.47L2347.93 397.883C2338.11 412.066 2325.56 422.976 2310.29 431.158C2295.02 439.886 2277.01 443.705 2256.83 443.705C2231.19 443.705 2208.28 438.25 2188.64 426.794C2168.46 415.339 2152.64 398.974 2141.73 377.154C2130.28 355.335 2124.82 330.242 2124.82 300.785C2124.82 272.42 2130.28 247.872 2141.73 226.053C2153.19 204.233 2169.01 187.868 2189.19 175.867C2208.83 163.866 2231.74 157.866 2256.83 157.866C2277.56 157.866 2295.56 162.23 2310.83 169.867C2326.11 177.504 2338.11 188.414 2347.93 202.051L2355.02 161.139H2406.3ZM2325.56 368.427C2340.29 351.516 2347.93 329.151 2347.93 301.876C2347.93 274.602 2340.29 251.691 2325.56 234.235C2310.29 216.779 2290.65 208.051 2266.65 208.051C2242.1 208.051 2222.46 216.779 2207.74 234.235C2192.46 251.691 2185.37 273.511 2185.37 300.785C2185.37 328.605 2192.46 350.971 2207.74 368.427C2222.46 385.882 2242.1 394.065 2266.65 394.065C2290.65 394.065 2310.29 385.882 2325.56 368.427Z" fill="white"/>
<defs>
<radialGradient id="paint0_radial_424_1621" cx="0" cy="0" r="1" gradientUnits="userSpaceOnUse" gradientTransform="translate(238.762 29.1677) rotate(90) scale(917.296 701.937)">
<stop stop-color="#FFB800"/>
<stop offset="1" stop-color="#FFECA8"/>
</radialGradient>
<radialGradient id="paint1_radial_424_1621" cx="0" cy="0" r="1" gradientUnits="userSpaceOnUse" gradientTransform="translate(238.762 29.1677) rotate(90) scale(917.296 701.937)">
<stop stop-color="#FFB800"/>
<stop offset="1" stop-color="#FFECA8"/>
</radialGradient>
<radialGradient id="paint2_radial_424_1621" cx="0" cy="0" r="1" gradientUnits="userSpaceOnUse" gradientTransform="translate(238.762 29.1677) rotate(90) scale(917.296 701.937)">
<stop stop-color="#FFB800"/>
<stop offset="1" stop-color="#FFECA8"/>
</radialGradient>
</defs>
</svg>
