<svg width="1000" height="1048" viewBox="0 0 1000 1048" fill="none" xmlns="http://www.w3.org/2000/svg">
<path d="M670.662 524.814C666.965 385.385 617.676 187.606 535.801 56.6461L586.912 0C829.246 84.4918 1000 287.638 1000 524.814C1000 759.626 832.633 961.083 594.138 1047.07L535.524 994.391C622.175 860.596 676.596 748.59 670.662 524.814Z" fill="#F3F8F9"/>
<path d="M362.075 533.988C328.654 409.257 280.336 323.511 174.895 224.867L200.425 174.889C388.69 188.786 558.637 294.491 596.573 469.65C629.57 641.733 562.295 815.667 404.898 917.459L353.225 891.192C390.583 762.381 387.596 629.233 362.075 533.988Z" fill="#F3F8F9"/>
<path d="M150.86 614.799C113.563 545.693 60.0531 492.156 0 457.999L8.085 424.841C121.43 406.616 231.806 450.307 282.196 543.671C332.083 636.104 309 750.965 233.384 835.482L199.12 827.199C203.576 758.186 188.199 683.983 150.86 614.799Z" fill="#F3F8F9"/>
</svg>
